<mxfile host="Electron" agent="Mozilla/5.0 (Windows NT 10.0; Win64; x64) AppleWebKit/537.36 (KHTML, like Gecko) draw.io/28.1.2 Chrome/138.0.7204.243 Electron/37.4.0 Safari/537.36" version="28.1.2">
  <diagram name="Seite-1" id="Q5yrPylHTLGuy9eVYaLh">
    <mxGraphModel dx="1489" dy="2063" grid="1" gridSize="10" guides="1" tooltips="1" connect="1" arrows="1" fold="1" page="1" pageScale="1" pageWidth="827" pageHeight="1169" math="0" shadow="0">
      <root>
        <mxCell id="0" />
        <mxCell id="1" parent="0" />
        <mxCell id="gcM5q3wsupn7Khz_1XSF-8" value="User" style="points=[];aspect=fixed;html=1;align=center;shadow=0;dashed=0;fillColor=#FF6A00;strokeColor=none;shape=mxgraph.alibaba_cloud.user;verticalAlign=bottom;spacingBottom=-21;spacingTop=0;" parent="1" vertex="1">
          <mxGeometry x="120" y="-11" width="60" height="60" as="geometry" />
        </mxCell>
        <mxCell id="gcM5q3wsupn7Khz_1XSF-9" style="edgeStyle=orthogonalEdgeStyle;rounded=0;orthogonalLoop=1;jettySize=auto;html=1;fontSize=12;" parent="1" source="gcM5q3wsupn7Khz_1XSF-8" target="gcM5q3wsupn7Khz_1XSF-11" edge="1">
          <mxGeometry relative="1" as="geometry" />
        </mxCell>
        <mxCell id="gcM5q3wsupn7Khz_1XSF-10" value="&lt;font&gt;Question about &lt;br&gt;legal documents&lt;/font&gt;" style="edgeLabel;html=1;align=center;verticalAlign=bottom;resizable=0;points=[];fontSize=13;" parent="gcM5q3wsupn7Khz_1XSF-9" vertex="1" connectable="0">
          <mxGeometry x="-0.1325" y="1" relative="1" as="geometry">
            <mxPoint as="offset" />
          </mxGeometry>
        </mxCell>
        <mxCell id="QBYLJgBADVMLDpYjNITa-30" style="edgeStyle=orthogonalEdgeStyle;rounded=0;orthogonalLoop=1;jettySize=auto;html=1;dashed=1;dashPattern=8 8;" edge="1" parent="1" source="gcM5q3wsupn7Khz_1XSF-11" target="gcM5q3wsupn7Khz_1XSF-21">
          <mxGeometry relative="1" as="geometry">
            <Array as="points">
              <mxPoint x="370" y="-160" />
            </Array>
          </mxGeometry>
        </mxCell>
        <mxCell id="gcM5q3wsupn7Khz_1XSF-11" value="&lt;span style=&quot;box-sizing: border-box; font-family: AmazonEmberBold, &amp;quot;Helvetica Neue Bold&amp;quot;, &amp;quot;Helvetica Neue&amp;quot;, Helvetica, Arial, sans-serif; color: rgb(51, 51, 51); font-size: 14px; text-wrap-mode: wrap;&quot;&gt;Nova FM &lt;br&gt;orchestrator&lt;/span&gt;" style="sketch=0;points=[[0,0,0],[0.25,0,0],[0.5,0,0],[0.75,0,0],[1,0,0],[0,1,0],[0.25,1,0],[0.5,1,0],[0.75,1,0],[1,1,0],[0,0.25,0],[0,0.5,0],[0,0.75,0],[1,0.25,0],[1,0.5,0],[1,0.75,0]];outlineConnect=0;fontColor=#232F3E;fillColor=#01A88D;strokeColor=#ffffff;dashed=0;verticalLabelPosition=middle;verticalAlign=middle;align=left;html=1;fontSize=13;fontStyle=0;aspect=fixed;shape=mxgraph.aws4.resourceIcon;resIcon=mxgraph.aws4.nova;labelPosition=right;spacingLeft=9;" parent="1" vertex="1">
          <mxGeometry x="340" y="-20" width="78" height="78" as="geometry" />
        </mxCell>
        <mxCell id="gcM5q3wsupn7Khz_1XSF-21" value="&lt;span style=&quot;font-size: 13px;&quot;&gt;Contracts &lt;br&gt;Drafter&amp;nbsp;&lt;/span&gt;&lt;span style=&quot;font-size: 13px;&quot;&gt;Agent&lt;/span&gt;" style="sketch=0;points=[[0,0,0],[0.25,0,0],[0.5,0,0],[0.75,0,0],[1,0,0],[0,1,0],[0.25,1,0],[0.5,1,0],[0.75,1,0],[1,1,0],[0,0.25,0],[0,0.5,0],[0,0.75,0],[1,0.25,0],[1,0.5,0],[1,0.75,0]];outlineConnect=0;fontColor=#232F3E;fillColor=#01A88D;strokeColor=#ffffff;dashed=0;verticalLabelPosition=bottom;verticalAlign=top;align=center;html=1;fontSize=12;fontStyle=0;aspect=fixed;shape=mxgraph.aws4.resourceIcon;resIcon=mxgraph.aws4.bedrock;" parent="1" vertex="1">
          <mxGeometry x="520" y="-190" width="78" height="78" as="geometry" />
        </mxCell>
        <mxCell id="QBYLJgBADVMLDpYjNITa-1" style="edgeStyle=orthogonalEdgeStyle;rounded=0;orthogonalLoop=1;jettySize=auto;html=1;dashed=1;dashPattern=8 8;" edge="1" parent="1" source="gcM5q3wsupn7Khz_1XSF-22" target="gcM5q3wsupn7Khz_1XSF-33">
          <mxGeometry relative="1" as="geometry">
            <Array as="points">
              <mxPoint x="730" y="189" />
              <mxPoint x="730" y="189" />
            </Array>
          </mxGeometry>
        </mxCell>
        <mxCell id="gcM5q3wsupn7Khz_1XSF-22" value="&lt;font style=&quot;font-size: 13px;&quot;&gt;Contracts&amp;nbsp; &lt;br&gt;Search&amp;nbsp;Agent&lt;/font&gt;" style="sketch=0;points=[[0,0,0],[0.25,0,0],[0.5,0,0],[0.75,0,0],[1,0,0],[0,1,0],[0.25,1,0],[0.5,1,0],[0.75,1,0],[1,1,0],[0,0.25,0],[0,0.5,0],[0,0.75,0],[1,0.25,0],[1,0.5,0],[1,0.75,0]];outlineConnect=0;fontColor=#232F3E;fillColor=#01A88D;strokeColor=#ffffff;dashed=0;verticalLabelPosition=bottom;verticalAlign=top;align=center;html=1;fontSize=12;fontStyle=0;aspect=fixed;shape=mxgraph.aws4.resourceIcon;resIcon=mxgraph.aws4.bedrock;" parent="1" vertex="1">
          <mxGeometry x="520" y="150" width="78" height="78" as="geometry" />
        </mxCell>
        <mxCell id="gcM5q3wsupn7Khz_1XSF-26" value="" style="rounded=0;whiteSpace=wrap;html=1;labelBorderColor=none;textShadow=0;dashed=1;dashPattern=8 8;opacity=20;container=1;" parent="1" vertex="1">
          <mxGeometry x="720" y="-226" width="340" height="150" as="geometry" />
        </mxCell>
        <mxCell id="gcM5q3wsupn7Khz_1XSF-28" value="" style="group" parent="gcM5q3wsupn7Khz_1XSF-26" vertex="1" connectable="0">
          <mxGeometry x="50" y="36" width="225" height="78" as="geometry" />
        </mxCell>
        <mxCell id="gcM5q3wsupn7Khz_1XSF-27" value="" style="group" parent="gcM5q3wsupn7Khz_1XSF-28" vertex="1" connectable="0">
          <mxGeometry x="15" width="210" height="78" as="geometry" />
        </mxCell>
        <mxCell id="gcM5q3wsupn7Khz_1XSF-25" value="Contract" style="sketch=0;pointerEvents=1;shadow=0;dashed=0;html=1;strokeColor=none;fillColor=#005F4B;labelPosition=center;verticalLabelPosition=bottom;verticalAlign=top;align=center;outlineConnect=0;shape=mxgraph.veeam2.report;fontSize=13;" parent="gcM5q3wsupn7Khz_1XSF-27" vertex="1">
          <mxGeometry x="160" width="50" height="70" as="geometry" />
        </mxCell>
        <mxCell id="gcM5q3wsupn7Khz_1XSF-23" value="&lt;font style=&quot;font-size: 13px;&quot;&gt;Bedrock FM&lt;/font&gt;" style="sketch=0;outlineConnect=0;fontColor=#232F3E;gradientColor=none;fillColor=#01A88D;strokeColor=none;dashed=0;verticalLabelPosition=bottom;verticalAlign=top;align=center;html=1;fontSize=12;fontStyle=0;aspect=fixed;pointerEvents=1;shape=mxgraph.aws4.sagemaker_model;" parent="gcM5q3wsupn7Khz_1XSF-28" vertex="1">
          <mxGeometry width="78" height="78" as="geometry" />
        </mxCell>
        <mxCell id="QBYLJgBADVMLDpYjNITa-44" style="edgeStyle=orthogonalEdgeStyle;rounded=0;orthogonalLoop=1;jettySize=auto;html=1;dashed=1;dashPattern=8 8;" edge="1" parent="gcM5q3wsupn7Khz_1XSF-28" source="gcM5q3wsupn7Khz_1XSF-23" target="gcM5q3wsupn7Khz_1XSF-25">
          <mxGeometry relative="1" as="geometry">
            <mxPoint x="170" y="35" as="targetPoint" />
            <Array as="points">
              <mxPoint x="150" y="39" />
              <mxPoint x="150" y="39" />
            </Array>
          </mxGeometry>
        </mxCell>
        <mxCell id="gcM5q3wsupn7Khz_1XSF-31" value="Final Contract" style="sketch=0;pointerEvents=1;shadow=0;dashed=0;html=1;strokeColor=none;fillColor=#005F4B;labelPosition=center;verticalLabelPosition=bottom;verticalAlign=top;align=center;outlineConnect=0;shape=mxgraph.veeam2.report;fontSize=13;" parent="1" vertex="1">
          <mxGeometry x="1130" y="-190" width="50" height="70" as="geometry" />
        </mxCell>
        <mxCell id="gcM5q3wsupn7Khz_1XSF-37" value="&lt;font style=&quot;font-size: 13px;&quot;&gt;RAG pipeline&lt;/font&gt;" style="rounded=0;whiteSpace=wrap;html=1;labelBorderColor=none;textShadow=0;dashed=1;dashPattern=8 8;opacity=20;container=1;labelPosition=center;verticalLabelPosition=top;align=center;verticalAlign=bottom;" parent="1" vertex="1">
          <mxGeometry x="730" y="114" width="860" height="150" as="geometry" />
        </mxCell>
        <mxCell id="gcM5q3wsupn7Khz_1XSF-36" value="&lt;span style=&quot;font-size: 13px;&quot;&gt;Bedrock&lt;br&gt;Data Automation&lt;/span&gt;" style="sketch=0;points=[[0,0,0],[0.25,0,0],[0.5,0,0],[0.75,0,0],[1,0,0],[0,1,0],[0.25,1,0],[0.5,1,0],[0.75,1,0],[1,1,0],[0,0.25,0],[0,0.5,0],[0,0.75,0],[1,0.25,0],[1,0.5,0],[1,0.75,0]];outlineConnect=0;fontColor=#232F3E;fillColor=#01A88D;strokeColor=#ffffff;dashed=0;verticalLabelPosition=bottom;verticalAlign=top;align=center;html=1;fontSize=12;fontStyle=0;aspect=fixed;shape=mxgraph.aws4.resourceIcon;resIcon=mxgraph.aws4.bedrock;" parent="gcM5q3wsupn7Khz_1XSF-37" vertex="1">
          <mxGeometry x="610.0003755965968" y="36" width="78" height="78" as="geometry" />
        </mxCell>
        <mxCell id="QBYLJgBADVMLDpYjNITa-20" style="edgeStyle=orthogonalEdgeStyle;rounded=0;orthogonalLoop=1;jettySize=auto;html=1;dashed=1;dashPattern=8 8;" edge="1" parent="gcM5q3wsupn7Khz_1XSF-37">
          <mxGeometry relative="1" as="geometry">
            <mxPoint x="119.91266237808668" y="62" as="sourcePoint" />
            <mxPoint x="247.34967005602812" y="61" as="targetPoint" />
            <Array as="points">
              <mxPoint x="120" y="61" />
            </Array>
          </mxGeometry>
        </mxCell>
        <mxCell id="gcM5q3wsupn7Khz_1XSF-33" value="&lt;font style=&quot;font-size: 13px;&quot;&gt;Contracts &lt;br&gt;Knowledge Base&lt;/font&gt;" style="sketch=0;outlineConnect=0;fontColor=#232F3E;gradientColor=none;fillColor=#8C4FFF;strokeColor=none;dashed=0;verticalLabelPosition=bottom;verticalAlign=top;align=center;html=1;fontSize=12;fontStyle=0;aspect=fixed;pointerEvents=1;shape=mxgraph.aws4.search_documents;" parent="gcM5q3wsupn7Khz_1XSF-37" vertex="1">
          <mxGeometry x="51.912662378086736" y="30" width="68" height="78" as="geometry" />
        </mxCell>
        <mxCell id="gcM5q3wsupn7Khz_1XSF-35" value="&lt;font style=&quot;font-size: 13px;&quot;&gt;Contracts &lt;br&gt;S3 Bucket&lt;/font&gt;" style="sketch=0;points=[[0,0,0],[0.25,0,0],[0.5,0,0],[0.75,0,0],[1,0,0],[0,1,0],[0.25,1,0],[0.5,1,0],[0.75,1,0],[1,1,0],[0,0.25,0],[0,0.5,0],[0,0.75,0],[1,0.25,0],[1,0.5,0],[1,0.75,0]];outlineConnect=0;fontColor=#232F3E;fillColor=#7AA116;strokeColor=#ffffff;dashed=0;verticalLabelPosition=bottom;verticalAlign=top;align=center;html=1;fontSize=12;fontStyle=0;aspect=fixed;shape=mxgraph.aws4.resourceIcon;resIcon=mxgraph.aws4.s3;" parent="gcM5q3wsupn7Khz_1XSF-37" vertex="1">
          <mxGeometry x="453.4637767171611" y="36" width="78" height="78" as="geometry" />
        </mxCell>
        <mxCell id="QBYLJgBADVMLDpYjNITa-16" style="edgeStyle=orthogonalEdgeStyle;rounded=0;orthogonalLoop=1;jettySize=auto;html=1;dashed=1;dashPattern=8 8;" edge="1" parent="gcM5q3wsupn7Khz_1XSF-37">
          <mxGeometry relative="1" as="geometry">
            <mxPoint x="325.3496700560281" y="65" as="sourcePoint" />
            <mxPoint x="453" y="65" as="targetPoint" />
            <Array as="points">
              <mxPoint x="454" y="65" />
            </Array>
          </mxGeometry>
        </mxCell>
        <mxCell id="QBYLJgBADVMLDpYjNITa-24" style="edgeStyle=orthogonalEdgeStyle;rounded=0;orthogonalLoop=1;jettySize=auto;html=1;dashed=1;dashPattern=8 8;" edge="1" parent="gcM5q3wsupn7Khz_1XSF-37">
          <mxGeometry relative="1" as="geometry">
            <mxPoint x="247.34967005602812" y="92" as="sourcePoint" />
            <mxPoint x="119.91266237808668" y="93" as="targetPoint" />
          </mxGeometry>
        </mxCell>
        <mxCell id="gcM5q3wsupn7Khz_1XSF-34" value="&lt;font style=&quot;font-size: 13px;&quot;&gt;OpenSearch &lt;br&gt;Serverless Index&lt;/font&gt;" style="sketch=0;outlineConnect=0;fontColor=#232F3E;gradientColor=none;fillColor=#8C4FFF;strokeColor=none;dashed=0;verticalLabelPosition=bottom;verticalAlign=top;align=center;html=1;fontSize=12;fontStyle=0;aspect=fixed;pointerEvents=1;shape=mxgraph.aws4.opensearch_service_index;" parent="gcM5q3wsupn7Khz_1XSF-37" vertex="1">
          <mxGeometry x="247.3496700560282" y="29" width="78" height="78" as="geometry" />
        </mxCell>
        <mxCell id="QBYLJgBADVMLDpYjNITa-10" value="Contract files" style="sketch=0;pointerEvents=1;shadow=0;dashed=0;html=1;strokeColor=none;fillColor=#005F4B;labelPosition=center;verticalLabelPosition=bottom;verticalAlign=top;align=center;outlineConnect=0;shape=mxgraph.veeam2.report;fontSize=13;" vertex="1" parent="gcM5q3wsupn7Khz_1XSF-37">
          <mxGeometry x="769.9996202531645" y="40" width="54.43037974683544" height="70" as="geometry" />
        </mxCell>
        <mxCell id="QBYLJgBADVMLDpYjNITa-13" style="edgeStyle=orthogonalEdgeStyle;rounded=0;orthogonalLoop=1;jettySize=auto;html=1;entryX=1;entryY=0.5;entryDx=0;entryDy=0;entryPerimeter=0;dashed=1;dashPattern=8 8;" edge="1" parent="gcM5q3wsupn7Khz_1XSF-37" source="QBYLJgBADVMLDpYjNITa-10" target="gcM5q3wsupn7Khz_1XSF-36">
          <mxGeometry relative="1" as="geometry" />
        </mxCell>
        <mxCell id="QBYLJgBADVMLDpYjNITa-15" style="edgeStyle=orthogonalEdgeStyle;rounded=0;orthogonalLoop=1;jettySize=auto;html=1;entryX=1;entryY=0.5;entryDx=0;entryDy=0;entryPerimeter=0;dashed=1;dashPattern=8 8;" edge="1" parent="gcM5q3wsupn7Khz_1XSF-37" source="gcM5q3wsupn7Khz_1XSF-36" target="gcM5q3wsupn7Khz_1XSF-35">
          <mxGeometry relative="1" as="geometry" />
        </mxCell>
        <mxCell id="QBYLJgBADVMLDpYjNITa-17" style="edgeStyle=orthogonalEdgeStyle;rounded=0;orthogonalLoop=1;jettySize=auto;html=1;dashed=1;dashPattern=8 8;" edge="1" parent="gcM5q3wsupn7Khz_1XSF-37" source="gcM5q3wsupn7Khz_1XSF-35" target="gcM5q3wsupn7Khz_1XSF-34">
          <mxGeometry relative="1" as="geometry">
            <Array as="points">
              <mxPoint x="420" y="96" />
              <mxPoint x="420" y="96" />
            </Array>
          </mxGeometry>
        </mxCell>
        <mxCell id="QBYLJgBADVMLDpYjNITa-18" value="&lt;font style=&quot;font-size: 14px;&quot;&gt;connects to&lt;/font&gt;" style="text;html=1;align=center;verticalAlign=middle;whiteSpace=wrap;rounded=0;" vertex="1" parent="gcM5q3wsupn7Khz_1XSF-37">
          <mxGeometry x="351" y="34" width="80" height="30" as="geometry" />
        </mxCell>
        <mxCell id="QBYLJgBADVMLDpYjNITa-19" value="&lt;font style=&quot;font-size: 14px;&quot;&gt;feeds&lt;/font&gt;" style="text;html=1;align=center;verticalAlign=middle;whiteSpace=wrap;rounded=0;" vertex="1" parent="gcM5q3wsupn7Khz_1XSF-37">
          <mxGeometry x="361" y="96" width="60" height="30" as="geometry" />
        </mxCell>
        <mxCell id="QBYLJgBADVMLDpYjNITa-21" value="&lt;font style=&quot;font-size: 14px;&quot;&gt;query&lt;/font&gt;" style="text;html=1;align=center;verticalAlign=middle;whiteSpace=wrap;rounded=0;" vertex="1" parent="gcM5q3wsupn7Khz_1XSF-37">
          <mxGeometry x="140" y="32" width="80" height="30" as="geometry" />
        </mxCell>
        <mxCell id="QBYLJgBADVMLDpYjNITa-25" value="&lt;font style=&quot;font-size: 14px;&quot;&gt;retrieved data&lt;/font&gt;" style="text;html=1;align=center;verticalAlign=middle;whiteSpace=wrap;rounded=0;" vertex="1" parent="gcM5q3wsupn7Khz_1XSF-37">
          <mxGeometry x="140" y="102" width="80" height="30" as="geometry" />
        </mxCell>
        <mxCell id="gcM5q3wsupn7Khz_1XSF-50" value="&lt;font style=&quot;font-size: 14px;&quot;&gt;tool&lt;/font&gt;" style="text;html=1;align=center;verticalAlign=middle;whiteSpace=wrap;rounded=0;" parent="1" vertex="1">
          <mxGeometry x="658" y="160" width="60" height="30" as="geometry" />
        </mxCell>
        <mxCell id="gcM5q3wsupn7Khz_1XSF-53" style="edgeStyle=orthogonalEdgeStyle;rounded=0;orthogonalLoop=1;jettySize=auto;html=1;dashed=1;dashPattern=8 8;" parent="1" edge="1">
          <mxGeometry relative="1" as="geometry">
            <mxPoint x="781.9126623780867" y="189.0344827586207" as="sourcePoint" />
            <mxPoint x="598" y="189" as="targetPoint" />
            <Array as="points">
              <mxPoint x="598" y="189" />
            </Array>
          </mxGeometry>
        </mxCell>
        <mxCell id="QBYLJgBADVMLDpYjNITa-9" value="&lt;font style=&quot;font-size: 14px;&quot;&gt;tool&lt;/font&gt;" style="text;html=1;align=center;verticalAlign=middle;whiteSpace=wrap;rounded=0;" vertex="1" parent="1">
          <mxGeometry x="658" y="-180" width="60" height="30" as="geometry" />
        </mxCell>
        <mxCell id="QBYLJgBADVMLDpYjNITa-31" value="&lt;font style=&quot;font-size: 14px;&quot;&gt;prompt&lt;/font&gt;" style="text;html=1;align=center;verticalAlign=middle;whiteSpace=wrap;rounded=0;" vertex="1" parent="1">
          <mxGeometry x="414" y="-190" width="60" height="30" as="geometry" />
        </mxCell>
        <mxCell id="QBYLJgBADVMLDpYjNITa-32" style="edgeStyle=orthogonalEdgeStyle;rounded=0;orthogonalLoop=1;jettySize=auto;html=1;dashed=1;dashPattern=8 8;" edge="1" parent="1" source="gcM5q3wsupn7Khz_1XSF-21">
          <mxGeometry relative="1" as="geometry">
            <mxPoint x="390" y="-20" as="targetPoint" />
            <Array as="points">
              <mxPoint x="390" y="-140" />
              <mxPoint x="390" y="-20" />
            </Array>
          </mxGeometry>
        </mxCell>
        <mxCell id="QBYLJgBADVMLDpYjNITa-33" value="&lt;font style=&quot;font-size: 14px;&quot;&gt;response&lt;/font&gt;" style="text;html=1;align=center;verticalAlign=middle;whiteSpace=wrap;rounded=0;" vertex="1" parent="1">
          <mxGeometry x="414" y="-142" width="60" height="30" as="geometry" />
        </mxCell>
        <mxCell id="QBYLJgBADVMLDpYjNITa-34" style="edgeStyle=orthogonalEdgeStyle;rounded=0;orthogonalLoop=1;jettySize=auto;html=1;dashed=1;dashPattern=8 8;" edge="1" parent="1" source="gcM5q3wsupn7Khz_1XSF-11">
          <mxGeometry relative="1" as="geometry">
            <mxPoint x="520" y="200" as="targetPoint" />
            <Array as="points">
              <mxPoint x="370" y="200" />
              <mxPoint x="520" y="200" />
            </Array>
          </mxGeometry>
        </mxCell>
        <mxCell id="QBYLJgBADVMLDpYjNITa-36" value="&lt;font style=&quot;font-size: 14px;&quot;&gt;prompt&lt;/font&gt;" style="text;html=1;align=center;verticalAlign=middle;whiteSpace=wrap;rounded=0;" vertex="1" parent="1">
          <mxGeometry x="414" y="198" width="60" height="30" as="geometry" />
        </mxCell>
        <mxCell id="QBYLJgBADVMLDpYjNITa-37" style="edgeStyle=orthogonalEdgeStyle;rounded=0;orthogonalLoop=1;jettySize=auto;html=1;dashed=1;dashPattern=8 8;" edge="1" parent="1" source="gcM5q3wsupn7Khz_1XSF-22">
          <mxGeometry relative="1" as="geometry">
            <mxPoint x="390" y="58" as="targetPoint" />
            <Array as="points">
              <mxPoint x="390" y="180" />
              <mxPoint x="390" y="58" />
            </Array>
          </mxGeometry>
        </mxCell>
        <mxCell id="QBYLJgBADVMLDpYjNITa-40" value="&lt;font style=&quot;font-size: 14px;&quot;&gt;response&lt;/font&gt;" style="text;html=1;align=center;verticalAlign=middle;whiteSpace=wrap;rounded=0;" vertex="1" parent="1">
          <mxGeometry x="420" y="150" width="60" height="30" as="geometry" />
        </mxCell>
        <mxCell id="QBYLJgBADVMLDpYjNITa-41" style="edgeStyle=orthogonalEdgeStyle;rounded=0;orthogonalLoop=1;jettySize=auto;html=1;dashed=1;dashPattern=8 8;entryX=1;entryY=0.5;entryDx=0;entryDy=0;entryPerimeter=0;" edge="1" parent="1" source="gcM5q3wsupn7Khz_1XSF-23" target="gcM5q3wsupn7Khz_1XSF-21">
          <mxGeometry relative="1" as="geometry">
            <mxPoint x="729.9999999999998" y="-151.34" as="sourcePoint" />
            <mxPoint x="630" y="-151" as="targetPoint" />
          </mxGeometry>
        </mxCell>
        <mxCell id="QBYLJgBADVMLDpYjNITa-43" style="edgeStyle=orthogonalEdgeStyle;rounded=0;orthogonalLoop=1;jettySize=auto;html=1;dashed=1;dashPattern=8 8;exitX=1;exitY=0.5;exitDx=0;exitDy=0;exitPerimeter=0;" edge="1" parent="1" source="gcM5q3wsupn7Khz_1XSF-21" target="gcM5q3wsupn7Khz_1XSF-23">
          <mxGeometry relative="1" as="geometry">
            <mxPoint x="630" y="-130" as="sourcePoint" />
            <mxPoint x="762" y="-130" as="targetPoint" />
          </mxGeometry>
        </mxCell>
        <mxCell id="QBYLJgBADVMLDpYjNITa-45" style="edgeStyle=orthogonalEdgeStyle;rounded=0;orthogonalLoop=1;jettySize=auto;html=1;dashed=1;dashPattern=8 8;" edge="1" parent="1" source="gcM5q3wsupn7Khz_1XSF-25" target="gcM5q3wsupn7Khz_1XSF-31">
          <mxGeometry relative="1" as="geometry">
            <Array as="points">
              <mxPoint x="1100" y="-155" />
              <mxPoint x="1100" y="-155" />
            </Array>
          </mxGeometry>
        </mxCell>
      </root>
    </mxGraphModel>
  </diagram>
</mxfile>
